<svg width="20" height="20" fill="currentColor" xmlns="http://www.w3.org/2000/svg"><path d="M9.764.032a1.3 1.3 0 0 0-.885.685 1.295 1.295 0 0 0-.008 1.074c.08.167.319.441.442.507l.087.047V4.532l3.695.009 3.695.009.229.117a.926.926 0 0 1 .351.279c.246.325.23-.027.23 5.081v4.585l.071.146c.193.4.743.448 1.016.09l.096-.126.009-4.678c.01-5.216.022-4.923-.222-5.423a2.314 2.314 0 0 0-1.453-1.211c-.183-.053-.473-.059-3.359-.069l-3.158-.01v-.986l.087-.047c.123-.066.349-.327.438-.504.09-.182.134-.483.105-.715-.086-.676-.776-1.168-1.466-1.047m-5.261.41c-.257.715-.464 1.078-.841 1.475-.403.425-.823.666-1.687.97A1.495 1.495 0 0 0 1.7 3c0 .009.184.083.408.164.77.279 1.195.534 1.585.951.361.385.555.732.811 1.443.08.224.153.408.163.408.009 0 .075-.161.146-.358.267-.737.48-1.123.832-1.498.387-.414.794-.657 1.58-.944.224-.082.408-.157.408-.166 0-.009-.184-.083-.408-.163-.701-.252-1.051-.446-1.427-.794-.417-.387-.691-.839-.967-1.601a3.163 3.163 0 0 0-.164-.408c-.01 0-.083.184-.164.408M1.883 5.05a.664.664 0 0 0-.382.412c-.025.095-.033 1.705-.026 5.444.011 5.95-.013 5.403.262 5.958.107.218.2.343.409.554.302.304.568.468.954.588l.25.077h7.305l.121-.082A.6.6 0 0 0 10.773 17l-.123-.083-3.583-.017-3.584-.017-.175-.079a1.281 1.281 0 0 1-.563-.594c-.059-.153-.062-.401-.078-5.493-.013-4.128-.026-5.35-.058-5.405a.703.703 0 0 0-.368-.277c-.158-.044-.195-.042-.358.015m9.934 2.336a.553.553 0 0 0-.323.543c.003.217.069.314.532.779l.456.459-.462.463c-.407.407-.467.482-.502.623-.121.474.255.85.729.729.141-.035.216-.095.623-.502l.462-.461.477.472c.479.475.523.504.767.516a.575.575 0 0 0 .575-.421c.044-.153.044-.191.001-.336-.042-.139-.117-.231-.508-.623l-.459-.459.469-.476c.412-.417.474-.495.508-.632.082-.335-.147-.681-.474-.718-.315-.035-.361-.009-.878.5l-.478.471-.458-.454c-.252-.25-.5-.471-.552-.49-.135-.052-.39-.043-.505.017m-6.667.833a.532.532 0 0 0-.301.364c-.044.15-.044.19-.001.334.042.139.117.23.509.623l.459.46-.459.46c-.392.393-.467.484-.509.623a.58.58 0 0 0 .569.756c.231 0 .292-.04.772-.514l.48-.472.462.461c.406.406.481.466.622.502a.595.595 0 0 0 .714-.799c-.021-.055-.242-.306-.492-.558l-.454-.458.469-.477c.414-.42.474-.494.5-.625.058-.285-.067-.566-.301-.678a.785.785 0 0 0-.511-.019c-.052.02-.3.24-.553.49l-.458.455-.459-.455c-.253-.25-.501-.47-.552-.49-.136-.051-.391-.043-.506.017m4.683 4.533c-1.347.227-2.483.42-2.524.43-.11.028-.312.218-.364.341a.574.574 0 0 0 .166.667c.236.207.105.219 2.965-.258 1.428-.238 2.636-.454 2.685-.48a.596.596 0 0 0-.001-1.072.743.743 0 0 0-.283-.043c-.107.002-1.296.189-2.644.415m5.337 1.69c-.278.77-.554 1.22-.993 1.623-.384.352-.769.556-1.585.84a1 1 0 0 0-.225.095c0 .009.161.074.358.145 1.391.499 1.958 1.058 2.445 2.413.081.225.154.408.163.408.009 0 .075-.161.147-.358.266-.738.48-1.123.832-1.499.39-.417.789-.655 1.58-.943.224-.082.408-.157.408-.166 0-.01-.101-.053-.225-.097-.842-.296-1.207-.49-1.591-.844-.454-.418-.688-.803-.985-1.617a3.293 3.293 0 0 0-.166-.409c-.009 0-.083.184-.163.409"/></svg>