<svg viewBox="0 0 24 24" fill="none" xmlns="http://www.w3.org/2000/svg">
<path d="M21.0002 21.0002L16.6602 16.6602" stroke="currentColor" stroke-width="2" stroke-linecap="round" stroke-linejoin="round"/>
<path d="M12.5 3.14062C16.2013 3.84273 19 7.09465 19 11.0002C19 15.4185 15.4182 19.0002 11 19.0002C7.01363 19.0002 3.70829 16.0846 3.1001 12.2695" stroke="currentColor" stroke-width="2" stroke-linecap="round" stroke-linejoin="round"/>
<path d="M7.34 0L7.574 0.6318C7.8236 1.3104 8.3618 1.8486 9.0482 2.106L9.68 2.34L9.0482 2.574C8.3696 2.8236 7.8314 3.3618 7.574 4.0482L7.34 4.68L7.106 4.0482C6.8564 3.3696 6.3182 2.8314 5.6318 2.574L5 2.34L5.6318 2.106C6.3104 1.8564 6.8486 1.3182 7.106 0.6318L7.34 0Z" fill="currentColor"/>
<path d="M2.34 5L2.574 5.6318C2.8236 6.3104 3.3618 6.8486 4.0482 7.106L4.68 7.34L4.0482 7.574C3.3696 7.8236 2.8314 8.3618 2.574 9.0482L2.34 9.68L2.106 9.0482C1.8564 8.3696 1.3182 7.8314 0.631799 7.574L0 7.34L0.631799 7.106C1.3104 6.8564 1.8486 6.3182 2.106 5.6318L2.34 5Z" fill="currentColor"/>
<path d="M9.1 5.5L9.46 6.472C9.844 7.516 10.672 8.344 11.728 8.74L12.7 9.1L11.728 9.46C10.684 9.844 9.856 10.672 9.46 11.728L9.1 12.7L8.74 11.728C8.356 10.684 7.528 9.856 6.472 9.46L5.5 9.1L6.472 8.74C7.516 8.356 8.344 7.528 8.74 6.472L9.1 5.5Z" fill="currentColor"/>
</svg>
