<?xml version="1.0" encoding="UTF-8"?>
<svg width="1200pt" height="1200pt" version="1.1" viewBox="0 0 1200 1200" xmlns="http://www.w3.org/2000/svg">
 <path d="m717.59 452.42h-235.2c-16.566 0-29.988 13.426-29.988 29.988v235.19c0 16.566 13.426 29.988 29.988 29.988h235.2c16.566 0 29.988-13.426 29.988-29.988v-235.19c0-16.566-13.422-29.988-29.988-29.988zm-29.988 235.19h-175.21v-175.21h175.21z"/>
 <path d="m994.45 629.99c12.395 35.113 45.91 60.348 85.211 60.348 49.812 0 90.336-40.523 90.336-90.336s-40.523-90.336-90.336-90.336c-39.305 0-72.816 25.234-85.211 60.348h-115.35v-102.51h115.46c7.9531 0 15.582-3.1602 21.207-8.7852l24.844-24.844c11.824 5.6914 25.07 8.8828 39.047 8.8828 49.812 0 90.336-40.523 90.336-90.328 0-49.812-40.523-90.336-90.336-90.336s-90.336 40.523-90.336 90.336c0 13.973 3.1914 27.215 8.8789 39.035l-16.062 16.062h-103.11c-1.7305-46.953-39.609-84.832-86.562-86.562v-103.11l16.02-16.02c12.039 5.7812 25.316 8.8398 39.07 8.8438 49.812 0 90.336-40.523 90.336-90.336s-40.523-90.336-90.336-90.336c-49.805 0-90.328 40.523-90.328 90.328-0.003906 13.758 3.0547 27.047 8.8438 39.09l-24.801 24.801c-5.625 5.625-8.7852 13.254-8.7852 21.207v115.46h-102.5v-115.35c35.113-12.395 60.348-45.91 60.348-85.211 0-49.812-40.523-90.336-90.336-90.336s-90.336 40.523-90.336 90.336c0 39.305 25.234 72.816 60.348 85.211v115.35h-102.51v-115.46c0-7.9531-3.1602-15.582-8.7852-21.207l-24.844-24.844c5.6914-11.824 8.8828-25.07 8.8828-39.047 0.003907-49.812-40.523-90.336-90.328-90.336-49.812 0-90.336 40.523-90.336 90.336s40.523 90.336 90.336 90.336c13.973 0 27.215-3.1914 39.035-8.8789l16.062 16.062v103.11c-46.957 1.7305-84.84 39.609-86.57 86.566l-103.1 0.003906-16.062-16.066c5.6875-11.82 8.8789-25.062 8.8789-39.031 0-49.812-40.523-90.336-90.336-90.336s-90.336 40.523-90.336 90.336c0 24.129 9.3984 46.816 26.461 63.875 17.059 17.062 39.738 26.457 63.855 26.457h0.015625c13.977 0 27.227-3.1914 39.051-8.8828l24.844 24.848c5.625 5.625 13.254 8.7852 21.207 8.7852l115.46-0.003906v102.5l-115.34 0.003907c-12.395-35.113-45.91-60.348-85.211-60.348-49.805 0-90.328 40.523-90.328 90.336s40.523 90.336 90.34 90.336c39.297-0.007812 72.805-25.242 85.199-60.348l115.34-0.003906v102.51l-115.45 0.003906c-7.9531 0-15.582 3.1602-21.207 8.7852l-24.801 24.801c-12.039-5.7852-25.316-8.8438-39.066-8.8438h-0.015626c-49.812 0-90.336 40.523-90.336 90.336 0 49.805 40.523 90.328 90.336 90.328s90.336-40.523 90.336-90.34c-0.003906-13.75-3.0625-27.027-8.8438-39.066l16.023-16.02 103.1-0.003906c1.7344 46.953 39.617 84.832 86.57 86.562l0.003906 103.11-16.066 16.062c-11.82-5.6875-25.062-8.8789-39.031-8.8789-49.812 0-90.336 40.523-90.336 90.336-0.003907 49.801 40.52 90.324 90.332 90.324 24.129 0 46.816-9.3984 63.875-26.461 17.062-17.062 26.461-39.75 26.457-63.875 0-13.977-3.1914-27.227-8.8828-39.051l24.848-24.844c5.625-5.625 8.7852-13.254 8.7852-21.207l-0.003906-115.46h102.5l0.003907 115.35c-35.113 12.395-60.348 45.91-60.348 85.211 0 49.805 40.523 90.328 90.336 90.328s90.336-40.523 90.336-90.34c-0.007812-39.297-25.242-72.805-60.348-85.199l-0.003906-115.35h102.51l0.003906 115.46c0 7.9531 3.1602 15.582 8.7852 21.207l24.801 24.805c-5.7891 12.043-8.8477 25.328-8.8438 39.082 0 49.812 40.523 90.336 90.336 90.336 49.805 0 90.328-40.523 90.328-90.336s-40.523-90.336-90.34-90.336c-13.75 0.003906-27.027 3.0625-39.066 8.8438l-16.02-16.023-0.003906-103.1c46.953-1.7344 84.832-39.609 86.562-86.562h103.11l16.02 16.02c-5.7812 12.039-8.8398 25.316-8.8438 39.07 0 49.812 40.523 90.336 90.336 90.336s90.336-40.523 90.336-90.336c0-49.805-40.523-90.328-90.328-90.328h-0.015625c-13.754 0-27.035 3.0586-39.074 8.8438l-24.801-24.801c-5.625-5.625-13.254-8.7852-21.207-8.7852h-115.46l-0.011719-102.5zm85.211-60.348c16.742 0 30.359 13.617 30.359 30.359s-13.617 30.359-30.359 30.359c-16.742 0-30.359-13.617-30.359-30.359s13.617-30.359 30.359-30.359zm0-247.57c16.742 0 30.359 13.617 30.359 30.359 0 16.734-13.617 30.352-30.359 30.352-16.742 0-30.359-13.617-30.359-30.352 0-16.742 13.617-30.359 30.359-30.359zm-479.66-232.1c16.742 0 30.359 13.617 30.359 30.359 0 16.742-13.617 30.359-30.359 30.359s-30.359-13.617-30.359-30.359c0-16.742 13.617-30.359 30.359-30.359zm-479.67 292.81h-0.003906c-8.1055 0-15.727-3.1602-21.457-8.8906-5.7305-5.7305-8.8906-13.355-8.8906-21.465 0-16.742 13.617-30.359 30.359-30.359 16.742 0 30.359 13.617 30.359 30.359 0 16.738-13.617 30.355-30.367 30.355zm0.011719 247.57c-16.742 0-30.359-13.617-30.359-30.359 0-16.742 13.617-30.359 30.352-30.359 16.742 0 30.359 13.617 30.359 30.359 0.003906 16.738-13.613 30.359-30.352 30.359zm0.007812 247.56c-16.742 0-30.359-13.617-30.359-30.352 0-16.742 13.617-30.359 30.363-30.359h0.007813c8.1055 0 15.723 3.1602 21.453 8.8906 5.7383 5.7305 8.8945 13.359 8.8945 21.465 0 16.738-13.617 30.355-30.359 30.355zm479.66 232.09c-16.742 0-30.359-13.617-30.359-30.352 0-16.742 13.617-30.359 30.359-30.359 16.734 0 30.359 13.617 30.359 30.352-0.003907 16.742-13.621 30.359-30.359 30.359zm479.64-292.8h0.007812c16.742 0 30.359 13.617 30.359 30.352 0 16.742-13.617 30.359-30.359 30.359-16.742 0-30.359-13.617-30.359-30.352 0-8.1094 3.1602-15.738 8.8945-21.469 5.7305-5.7305 13.348-8.8906 21.457-8.8906zm-232.09-727.23c16.742 0 30.359 13.617 30.359 30.359s-13.617 30.359-30.352 30.359c-8.1094 0-15.738-3.1602-21.469-8.8945-5.7383-5.7305-8.8906-13.355-8.8906-21.465 0-16.742 13.617-30.359 30.352-30.359zm-495.13 60.711c-16.742 0-30.359-13.617-30.359-30.359 0-16.742 13.617-30.359 30.359-30.359 16.734 0 30.352 13.617 30.352 30.359 0 16.742-13.617 30.359-30.352 30.359zm21.469 950.44c-5.7305 5.7305-13.355 8.8906-21.465 8.8906-16.742 0-30.359-13.617-30.359-30.359 0-16.742 13.617-30.359 30.359-30.359 16.734 0 30.352 13.617 30.352 30.363 0.003906 8.1055-3.1484 15.73-8.8867 21.465zm473.67-51.84c16.742 0 30.359 13.617 30.359 30.359 0 16.742-13.617 30.359-30.352 30.359-16.742 0-30.359-13.617-30.359-30.363 0-8.1055 3.1523-15.727 8.8906-21.457 5.7266-5.7383 13.355-8.8984 21.461-8.8984zm-28.441-260.18c0 16.547-13.465 30.012-30.012 30.012l-378.24 0.003906c-16.547 0-30.012-13.465-30.012-30.012v-378.23c0-16.547 13.465-30.012 30.012-30.012h378.23c16.547 0 30.012 13.465 30.012 30.012z"/>
</svg>
