<?xml version="1.0" encoding="UTF-8"?>
<svg width="1200pt" height="1200pt" version="1.1" viewBox="0 0 1200 1200" xmlns="http://www.w3.org/2000/svg">
 <path d="m768 802.56c73.492 0.14453 145.38-21.527 206.54-62.27 61.168-40.742 108.87-98.723 137.05-166.59 28.191-67.871 35.605-142.58 21.301-214.67-14.301-72.086-49.676-138.31-101.64-190.28s-118.19-87.344-190.28-101.64c-72.09-14.305-146.8-6.8906-214.67 21.301-67.871 28.188-125.85 75.887-166.59 137.05-40.742 61.168-62.414 133.05-62.27 206.54 0.023438 38.434 5.9336 76.637 17.52 113.28l-340.08 339.6c-9.5703 9.4336-14.934 22.324-14.879 35.762v168c-0.25781 13.574 4.9688 26.68 14.504 36.348 9.5312 9.6641 22.559 15.078 36.137 15.012h168c13.449 0.0625 26.367-5.25 35.879-14.762s14.824-22.43 14.762-35.879v-84.238h84.48c13.41-0.0625 26.254-5.418 35.738-14.902 9.4805-9.4844 14.836-22.328 14.898-35.738v-84.48h84.242c13.438 0.054688 26.328-5.3086 35.758-14.879l70.32-70.078v-0.003907c36.645 11.586 74.848 17.496 113.28 17.52zm84.48-540c22.418 0 43.918 8.9141 59.766 24.773 15.844 15.859 24.734 37.367 24.715 59.789-0.023438 22.418-8.9531 43.91-24.828 59.738-15.879 15.832-37.395 24.703-59.812 24.66-22.422-0.042969-43.902-8.9961-59.719-24.887-15.816-15.887-24.664-37.414-24.602-59.832 0-22.512 9.0039-44.082 25.012-59.91 16.008-15.824 37.68-24.586 60.188-24.332z"/>
</svg>
