<?xml version="1.0" encoding="UTF-8"?>
<svg width="1200pt" height="1200pt" version="1.1" viewBox="0 0 1200 1200" xmlns="http://www.w3.org/2000/svg">
 <path d="m171.47 674.95h182.34c11.766 0 21.328 9.5625 21.328 21.328v332.34c0 11.766-9.5625 21.328-21.328 21.328h-182.34c-11.766 0-21.328-9.5625-21.328-21.328v-332.34c0-11.766 9.5625-21.328 21.328-21.328z"/>
 <path d="m508.87 149.95h182.34c11.766 0 21.328 9.5625 21.328 21.328v857.34c0 11.766-9.5625 21.328-21.328 21.328h-182.34c-11.766 0-21.328-9.5625-21.328-21.328v-857.34c0-11.766 9.5625-21.328 21.328-21.328z"/>
 <path d="m846.32 449.95h182.34c11.766 0 21.328 9.5625 21.328 21.328v557.34c0 11.766-9.5625 21.328-21.328 21.328h-182.34c-11.766 0-21.328-9.5625-21.328-21.328v-557.34c0-11.766 9.5625-21.328 21.328-21.328z"/>
</svg>
