<?xml version="1.0" encoding="UTF-8"?>
<svg width="1200pt" height="1200pt" version="1.1" viewBox="0 0 1200 1200" xmlns="http://www.w3.org/2000/svg">
 <path d="m476.02 154.69 0.046875-38.625c-0.09375-24.188 9.75-46.125 25.641-62.016l1.4531-1.3594c15.75-15.047 37.078-24.281 60.469-24.328l72.656 0.046875c24.141-0.09375 46.125 9.75 61.969 25.641l1.3594 1.4531c15.047 15.797 24.375 37.125 24.375 60.516v38.625c0 4.9219 1.4531 9.375 3.9844 12.891 2.5781 3.5625 6.3281 6.3281 10.969 7.8281 10.453 3.4219 21.141 7.4062 31.969 11.859 10.594 4.3594 20.953 9.1406 30.891 14.156 4.4062 2.2031 9.0469 2.9531 13.359 2.25s8.4844-2.8125 11.906-6.2812l27.422-27.422c17.109-17.109 39.562-25.641 61.922-25.641 22.5 0.09375 45 8.625 62.016 25.641l51.375 51.375c17.109 17.109 25.688 39.609 25.688 62.016 0 22.453-8.5781 44.953-25.641 62.016l-28.125 28.125c-2.9531 3.2812-4.8281 7.1719-5.4844 11.156-0.70312 4.3594 0.046875 9 2.25 13.359 5.0156 9.9375 9.7969 20.25 14.156 30.844 4.4531 10.594 8.4375 21.328 11.906 32.016 1.5 4.5938 4.2656 8.3906 7.8281 10.969 3.4688 2.5312 7.9688 3.9844 12.891 3.9844l38.672 0.09375c24.141-0.09375 46.125 9.75 62.016 25.641l1.3594 1.4531c15.094 15.797 24.422 37.125 24.422 60.516l-0.09375 72.656c0.09375 24.141-9.75 46.125-25.641 61.969l-1.4531 1.3594c-15.797 15.047-37.125 24.375-60.516 24.375h-38.672c-4.9219 0-9.375 1.4531-12.891 3.9844s-6.2812 6.3281-7.7812 10.969c-3.375 10.312-7.3594 21-11.953 32.109-4.2656 10.312-8.9531 20.625-14.109 30.75-2.2031 4.3594-2.9531 9.0469-2.25 13.359s2.8125 8.4844 6.2344 11.906l27.375 27.422c17.109 17.109 25.641 39.562 25.641 61.922 0 22.453-8.5781 44.953-25.641 62.016l-51.375 51.375c-17.062 17.062-39.562 25.641-62.016 25.641-22.359 0-44.812-8.5781-61.969-25.641l-27.328-27.328c-3.5156-3.5625-7.6875-5.6719-12-6.375s-9 0.046875-13.359 2.25c-10.312 5.2031-20.672 9.9844-31.031 14.25-10.547 4.3594-21.188 8.2969-31.828 11.812-4.5938 1.5-8.3906 4.2656-10.922 7.7812-2.5312 3.4688-3.9844 7.9688-3.9844 12.891v38.719c-0.14062 24.141-9.9844 46.078-25.828 61.922-15.844 15.938-37.781 25.781-61.922 25.781l-72.703-0.09375c-24.188 0-46.078-9.8438-61.922-25.641-15.938-15.891-25.828-37.828-25.828-61.969l0.09375-38.672c-0.09375-4.9219-1.5469-9.375-4.0781-12.891s-6.3281-6.3281-10.922-7.8281c-10.406-3.375-21.094-7.3594-31.875-11.812-10.406-4.2656-20.719-9.0469-30.984-14.25-4.4062-2.2031-9.0938-2.9531-13.406-2.25s-8.4844 2.8125-11.906 6.2344l-27.375 27.328c-17.016 17.062-39.516 25.594-62.016 25.641-22.453 0.09375-44.953-8.4844-62.016-25.547l-52.734-52.875c-16.172-16.922-24.281-38.766-24.281-60.562 0-22.453 8.5781-44.906 25.688-62.016l27.328-27.328c3.5156-3.5156 5.6719-7.6406 6.3281-11.812 0.70312-4.4531-0.046875-9.0938-2.25-13.5-5.0625-9.9844-9.7969-20.344-14.203-30.938-4.4531-10.828-8.4375-21.469-11.812-31.875-1.5-4.5938-4.2656-8.3906-7.8281-10.969-3.5156-2.5312-7.9688-3.9844-12.891-3.9844h-38.719c-24.094 0-45.984-9.8438-61.922-25.734s-25.828-37.828-25.828-61.969l0.09375-72.656c-0.09375-24.141 9.75-46.125 25.641-62.016 15.797-15.797 37.734-25.641 62.016-25.641l38.625-0.09375c4.9219 0 9.375-1.4531 12.891-3.9844s6.2812-6.3281 7.7812-10.969c3.375-10.359 7.3594-21 11.812-31.828 4.3125-10.453 9.0938-20.766 14.25-31.031 2.2031-4.4062 2.9531-9.0469 2.25-13.359-0.70312-4.2188-2.8125-8.3906-6.3281-11.906l-27.328-27.422c-17.062-17.109-25.641-39.562-25.641-61.969 0-22.453 8.5781-44.906 25.641-62.016l51.469-51.328c17.016-17.109 39.516-25.688 61.969-25.688 22.359 0 44.812 8.5781 61.969 25.641l27.375 27.281c3.5156 3.5156 7.6875 5.6719 12.141 6.375 4.4531 0.5625 8.9062-0.1875 13.172-2.3438 9.9844-5.0625 20.344-9.7969 30.938-14.203s21.281-8.3906 31.969-11.859c4.5938-1.5 8.3906-4.2656 10.922-7.8281 2.5312-3.4688 3.9844-7.9688 4.0312-12.844zm189.14 202.03c-61.875-16.594-129.98-9.75-189.89 24.375l-1.2188 0.75c-60.234 34.781-100.69 90.703-117.38 152.95-16.688 62.203-9.6562 130.78 25.078 191.02 34.828 60.328 90.75 100.78 153 117.47 61.828 16.547 129.98 9.75 189.84-24.328l1.2656-0.79688c60.234-34.781 100.64-90.703 117.33-152.95 16.547-61.828 9.75-129.98-24.328-189.84l-0.79688-1.2656c-34.781-60.234-90.703-100.64-152.95-117.33z"/>
</svg>
