<svg viewBox="0 0 24 24" fill="none" xmlns="http://www.w3.org/2000/svg">
<path d="M15.3899 4.39009C15.5156 4.51592 15.6726 4.60594 15.8446 4.65089C16.0167 4.69583 16.1977 4.69406 16.3689 4.64577C16.54 4.59747 16.6952 4.50439 16.8185 4.37613C16.9417 4.24787 17.0285 4.08906 17.0699 3.91609C17.1737 3.48399 17.3908 3.08736 17.6988 2.76707C18.0069 2.44677 18.3947 2.21437 18.8225 2.09381C19.2502 1.97325 19.7023 1.96888 20.1323 2.08116C20.5623 2.19343 20.9546 2.41829 21.2688 2.73258C21.5829 3.04687 21.8077 3.43922 21.9198 3.86924C22.0319 4.29926 22.0274 4.75139 21.9067 5.17908C21.786 5.60677 21.5535 5.99456 21.2331 6.3025C20.9127 6.61045 20.516 6.82743 20.0839 6.93109C19.9109 6.97249 19.7521 7.05927 19.6238 7.18249C19.4956 7.30571 19.4025 7.46091 19.3542 7.63208C19.3059 7.80326 19.3041 7.98422 19.3491 8.15631C19.394 8.3284 19.484 8.48539 19.6099 8.61109L21.2929 10.2931C21.517 10.5173 21.6949 10.7834 21.8162 11.0763C21.9375 11.3691 22 11.6831 22 12.0001C22 12.3171 21.9375 12.631 21.8162 12.9239C21.6949 13.2168 21.517 13.4829 21.2929 13.7071L19.6099 15.3901C19.4842 15.5159 19.3272 15.6059 19.1551 15.6509C18.983 15.6958 18.802 15.6941 18.6309 15.6458C18.4597 15.5975 18.3045 15.5044 18.1813 15.3761C18.058 15.2479 17.9713 15.0891 17.9299 14.9161C17.8261 14.484 17.6089 14.0874 17.3009 13.7671C16.9928 13.4468 16.605 13.2144 16.1773 13.0938C15.7495 12.9733 15.2974 12.9689 14.8674 13.0812C14.4374 13.1934 14.0451 13.4183 13.731 13.7326C13.4168 14.0469 13.1921 14.4392 13.0799 14.8692C12.9678 15.2993 12.9723 15.7514 13.093 16.1791C13.2137 16.6068 13.4462 16.9946 13.7666 17.3025C14.087 17.6104 14.4837 17.8274 14.9159 17.9311C15.0888 17.9725 15.2476 18.0593 15.3759 18.1825C15.5042 18.3057 15.5972 18.4609 15.6455 18.6321C15.6938 18.8033 15.6956 18.9842 15.6507 19.1563C15.6057 19.3284 15.5157 19.4854 15.3899 19.6111L13.7069 21.2931C13.4827 21.5173 13.2166 21.6951 12.9237 21.8164C12.6308 21.9377 12.3169 22.0002 11.9999 22.0002C11.6828 22.0002 11.3689 21.9377 11.076 21.8164C10.7831 21.6951 10.517 21.5173 10.2929 21.2931L8.60986 19.6101C8.48416 19.4843 8.32717 19.3942 8.15508 19.3493C7.983 19.3043 7.80204 19.3061 7.63086 19.3544C7.45968 19.4027 7.30448 19.4958 7.18126 19.624C7.05804 19.7523 6.97126 19.9111 6.92986 20.0841C6.82606 20.5162 6.60895 20.9128 6.3009 21.2331C5.99284 21.5534 5.60498 21.7858 5.17725 21.9064C4.74952 22.0269 4.29738 22.0313 3.86741 21.919C3.43743 21.8067 3.04515 21.5819 2.73096 21.2676C2.41678 20.9533 2.19205 20.561 2.07992 20.1309C1.96779 19.7009 1.9723 19.2488 2.09301 18.8211C2.21371 18.3934 2.44623 18.0056 2.76663 17.6977C3.08703 17.3897 3.48373 17.1728 3.91586 17.0691C4.08884 17.0277 4.24764 16.9409 4.3759 16.8177C4.50417 16.6945 4.59724 16.5393 4.64554 16.3681C4.69384 16.1969 4.6956 16.016 4.65066 15.8439C4.60572 15.6718 4.51569 15.5148 4.38986 15.3891L2.70686 13.7071C2.48269 13.4829 2.30486 13.2168 2.18354 12.9239C2.06222 12.631 1.99978 12.3171 1.99978 12.0001C1.99978 11.6831 2.06222 11.3691 2.18354 11.0763C2.30486 10.7834 2.48269 10.5173 2.70686 10.2931L4.38986 8.61009C4.51557 8.48426 4.67255 8.39423 4.84464 8.34929C5.01673 8.30435 5.19769 8.30612 5.36887 8.35441C5.54005 8.40271 5.69524 8.49579 5.81846 8.62405C5.94168 8.75231 6.02847 8.91111 6.06986 9.08409C6.17367 9.51619 6.39078 9.91281 6.69883 10.2331C7.00688 10.5534 7.39475 10.7858 7.82248 10.9064C8.25021 11.0269 8.70234 11.0313 9.13232 10.919C9.5623 10.8067 9.95458 10.5819 10.2688 10.2676C10.5829 9.95331 10.8077 9.56095 10.9198 9.13094C11.0319 8.70092 11.0274 8.24879 10.9067 7.8211C10.786 7.39341 10.5535 7.00562 10.2331 6.69767C9.91269 6.38973 9.516 6.17275 9.08386 6.06909C8.91089 6.02769 8.75208 5.94091 8.62382 5.81769C8.49556 5.69447 8.40248 5.53927 8.35419 5.36809C8.30589 5.19692 8.30412 5.01596 8.34906 4.84387C8.39401 4.67178 8.48403 4.51479 8.60986 4.38909L10.2929 2.70709C10.517 2.48291 10.7831 2.30509 11.076 2.18377C11.3689 2.06244 11.6828 2 11.9999 2C12.3169 2 12.6308 2.06244 12.9237 2.18377C13.2166 2.30509 13.4827 2.48291 13.7069 2.70709L15.3899 4.39009Z" fill="currentColor"/>
</svg>
